<svg width="146" height="32" viewBox="0 0 146 32" fill="none" xmlns="http://www.w3.org/2000/svg">
<path fill-rule="evenodd" clip-rule="evenodd" d="M5.40961 28.0439C5.01281 27.8169 4.6649 27.5136 4.38593 27.1514C4.10697 26.7892 3.90247 26.3754 3.78424 25.9338C3.666 25.4922 3.63638 25.0316 3.69706 24.5785C3.75775 24.1254 3.90755 23.6888 4.13782 23.2939L14.5726 5.213C15.0318 4.41242 15.7903 3.82705 16.6811 3.58567C17.5719 3.34429 18.5221 3.46667 19.3227 3.92589C20.1233 4.3851 20.7086 5.14354 20.95 6.03435C21.1914 6.92516 21.069 7.87537 20.6098 8.67595H20.5945L10.1597 26.7568C9.93392 27.1549 9.63152 27.5043 9.26993 27.7848C8.90835 28.0653 8.49476 28.2713 8.05306 28.391C7.61136 28.5107 7.15033 28.5416 6.69659 28.4821C6.24286 28.4225 5.80544 28.2736 5.40961 28.0439ZM1.11923 21.5471C0.487126 22.644 0.165616 23.8922 0.189198 25.158C0.212781 26.4238 0.580566 27.6592 1.25309 28.7318C1.92561 29.8044 2.87749 30.6736 4.00658 31.2462C5.13567 31.8187 6.39936 32.0731 7.66205 31.9819H28.0413C29.8877 31.9778 31.6571 31.2415 32.9613 29.9345C34.2655 28.6274 34.9979 26.8564 34.9979 25.01C35.0019 23.7949 34.6848 22.6002 34.0785 21.5471H34.0938L23.751 3.72669C23.1714 2.62461 22.3072 1.69786 21.2482 1.04278C20.1893 0.387696 18.9742 0.0281772 17.7293 0.00158982C16.4844 -0.0249976 15.255 0.282316 14.1691 0.891592C13.0831 1.50087 12.1802 2.38987 11.554 3.4662L1.11923 21.5471ZM23.6284 10.3921V10.4227L19.2307 18.0535H28.072L23.6284 10.3921ZM17.2081 21.5318L13.1783 28.4883H28.0413C28.9638 28.4883 29.8485 28.1218 30.5008 27.4695C31.1532 26.8172 31.5196 25.9325 31.5196 25.01C31.5196 24.0875 31.1532 23.2028 30.5008 22.5505C29.8485 21.8982 28.9638 21.5318 28.0413 21.5318H17.2081Z" fill="url(#paint0_linear_2031_25039)"/>
<path d="M50.5657 27.8593H48.9108C48.8289 27.8685 48.7459 27.8609 48.6669 27.8372C48.588 27.8136 48.5146 27.7742 48.4512 27.7214C48.3348 27.6354 48.2446 27.5187 48.1907 27.3843L47.3173 25.0246H42.5519L41.6785 27.3843C41.6345 27.5157 41.5483 27.6288 41.4333 27.7061C41.373 27.7596 41.3027 27.8007 41.2264 27.827C41.1502 27.8533 41.0695 27.8643 40.989 27.8593H39.3035L43.839 16.3213H46.0302L50.5657 27.8593ZM46.781 23.5077L45.3713 19.6617C45.2947 19.4931 45.2334 19.2939 45.1568 19.0641C45.0802 18.8342 45.0035 18.5737 44.9269 18.2979C44.8686 18.5568 44.797 18.8125 44.7124 19.0641C44.653 19.2724 44.5814 19.4771 44.4979 19.677L43.1035 23.5077H46.781Z" fill="#4C6C7C"/>
<path d="M58.9933 25.1472C59.0512 25.1474 59.1084 25.1599 59.1612 25.1836C59.214 25.2074 59.2612 25.2419 59.2998 25.2851L60.1426 26.1891C59.687 26.766 59.098 27.2235 58.4264 27.5222C56.8956 28.1443 55.1844 28.1553 53.6457 27.5529C52.9812 27.2761 52.3851 26.8578 51.8989 26.327C51.4054 25.793 51.0296 25.1614 50.7957 24.473C50.2598 22.9288 50.2653 21.2483 50.811 19.7076C51.0729 19.0152 51.4745 18.384 51.9908 17.8535C52.4942 17.3217 53.1054 16.9038 53.7836 16.6277C54.5187 16.3324 55.3052 16.1865 56.0973 16.1987C56.8636 16.1814 57.6251 16.3223 58.3345 16.6124C58.9506 16.8744 59.5159 17.2426 60.0047 17.7003L59.2845 18.6963L59.1159 18.8648C59.036 18.9224 58.9382 18.9496 58.8401 18.9415C58.7532 18.9374 58.6687 18.9111 58.595 18.8648C58.4965 18.8201 58.4039 18.7635 58.3191 18.6963L57.9667 18.4818C57.8196 18.3978 57.6659 18.3261 57.507 18.2673C57.3098 18.1879 57.1042 18.1313 56.8941 18.0987C56.6323 18.0429 56.365 18.0172 56.0973 18.0221C55.6089 18.0201 55.1248 18.1138 54.6723 18.2979C54.2515 18.481 53.8752 18.7528 53.5691 19.0947C53.2446 19.4707 52.9996 19.9085 52.8489 20.3818C52.6705 20.9362 52.5826 21.5156 52.5884 22.0979C52.589 22.686 52.6821 23.2703 52.8642 23.8294C53.0259 24.2998 53.2814 24.7324 53.6151 25.1012C53.9198 25.4446 54.2965 25.7166 54.7183 25.898C55.1551 26.0805 55.6239 26.1742 56.0973 26.1738L56.8941 26.1278C57.1133 26.0987 57.3289 26.0474 57.5377 25.9746C57.7372 25.9129 57.9278 25.8253 58.1046 25.7141C58.2961 25.5935 58.4757 25.455 58.6409 25.3004C58.691 25.2559 58.7479 25.2197 58.8095 25.1931C58.8664 25.1638 58.9293 25.1481 58.9933 25.1472Z" fill="#4C6C7C"/>
<path d="M68.953 25.1472C69.0109 25.1474 69.0681 25.1599 69.1209 25.1836C69.1737 25.2074 69.2209 25.2419 69.2595 25.2851L70.1022 26.1891C69.6467 26.766 69.0577 27.2235 68.3861 27.5222C66.8553 28.1443 65.1441 28.1553 63.6054 27.5529C62.9409 27.2761 62.3448 26.8578 61.8586 26.327C61.3656 25.79 60.9852 25.1595 60.74 24.473C60.4839 23.7074 60.3545 22.9052 60.357 22.0979C60.356 21.2833 60.496 20.4746 60.7707 19.7076C61.0326 19.0187 61.4284 18.3886 61.9352 17.8535C62.4469 17.3245 63.0625 16.9072 63.7433 16.6277C64.4784 16.3324 65.2649 16.1865 66.057 16.1987C66.8232 16.1814 67.5848 16.3223 68.2942 16.6124C68.9103 16.8744 69.4756 17.2426 69.9643 17.7003L69.2442 18.6963L69.0756 18.8648C68.9947 18.9201 68.8977 18.947 68.7998 18.9415C68.7125 18.9397 68.6274 18.9132 68.5547 18.8648C68.4562 18.8201 68.3636 18.7635 68.2788 18.6963L67.9264 18.4818C67.7793 18.3978 67.6256 18.3261 67.4667 18.2673C67.2689 18.1899 67.0634 18.1334 66.8538 18.0987C66.592 18.0429 66.3247 18.0172 66.057 18.0221C65.5686 18.0201 65.0844 18.1138 64.632 18.2979C64.2112 18.481 63.8349 18.7528 63.5288 19.0947C63.2073 19.4728 62.9627 19.91 62.8086 20.3818C62.6302 20.9362 62.5423 21.5156 62.5481 22.0979C62.5487 22.686 62.6418 23.2703 62.8239 23.8294C62.9856 24.2998 63.2411 24.7324 63.5747 25.1012C63.8795 25.4446 64.2562 25.7166 64.678 25.898C65.1148 26.0805 65.5836 26.1742 66.057 26.1738L66.8538 26.1278C67.073 26.0987 67.2886 26.0474 67.4974 25.9746C67.6969 25.9129 67.8875 25.8253 68.0643 25.7141C68.2558 25.5935 68.4354 25.455 68.6006 25.3004C68.6507 25.2559 68.7076 25.2197 68.7692 25.1931C68.8261 25.1638 68.889 25.1481 68.953 25.1472Z" fill="#4C6C7C"/>
<path d="M81.9926 22.0977C81.9958 22.8989 81.8503 23.6938 81.5636 24.4421C81.3029 25.1411 80.9001 25.7785 80.3805 26.3139C79.8609 26.8493 79.2359 27.2711 78.545 27.5526C77.0047 28.1351 75.3046 28.1351 73.7643 27.5526C73.0667 27.2722 72.4353 26.8495 71.9102 26.3114C71.3907 25.7746 70.9842 25.1389 70.7151 24.4421C70.1637 22.9225 70.1637 21.2575 70.7151 19.738C70.9879 19.0429 71.3939 18.4079 71.9102 17.8686C72.44 17.3401 73.0705 16.9232 73.7643 16.6428C74.5226 16.3337 75.3359 16.1825 76.1547 16.1984C76.7124 16.1966 77.2682 16.2635 77.8095 16.3976C78.3025 16.5304 78.7763 16.7261 79.2192 16.9799C79.6486 17.224 80.0408 17.5284 80.3837 17.8839C80.7266 18.2362 81.0203 18.633 81.2571 19.0638C81.5038 19.512 81.6893 19.9913 81.8088 20.4888C81.9321 21.0162 81.9938 21.5561 81.9926 22.0977ZM79.7862 22.0977C79.7972 21.5162 79.7144 20.9367 79.541 20.3815C79.3875 19.9108 79.1369 19.4776 78.8055 19.1097C78.4928 18.7579 78.1054 18.4804 77.6716 18.2976C76.6885 17.9299 75.6055 17.9299 74.6224 18.2976C74.186 18.4837 73.7942 18.7605 73.4732 19.1097C73.1518 19.4822 72.9071 19.9143 72.753 20.3815C72.4006 21.4933 72.4006 22.6868 72.753 23.7985C72.8976 24.2698 73.1434 24.7038 73.4732 25.0703C73.7942 25.4195 74.186 25.6964 74.6224 25.8824C75.6055 26.2502 76.6885 26.2502 77.6716 25.8824C78.1054 25.6996 78.4928 25.4222 78.8055 25.0703C79.14 24.7047 79.3909 24.2707 79.541 23.7985C79.7133 23.2484 79.7961 22.6741 79.7862 22.0977Z" fill="#4C6C7C"/>
<path d="M88.1679 26.1279C88.5504 26.1389 88.9312 26.0711 89.2864 25.9287C89.5951 25.794 89.8719 25.5955 90.0985 25.3464C90.3301 25.0766 90.5071 24.7644 90.6195 24.427C90.7427 24.0407 90.8047 23.6374 90.8034 23.2319V16.3213H92.9486V23.2319C92.9525 23.8854 92.8383 24.5343 92.6115 25.1472C92.4064 25.7135 92.0811 26.2287 91.6579 26.6572C91.2346 27.0858 90.7236 27.4175 90.1598 27.6295C88.8743 28.1046 87.4614 28.1046 86.1759 27.6295C85.6098 27.4141 85.0966 27.0797 84.671 26.6488C84.2454 26.2179 83.9173 25.7006 83.7089 25.1319C83.4858 24.5237 83.3767 23.8796 83.3872 23.2319V16.3213H85.5323V23.2319C85.5334 23.6372 85.5954 24.0401 85.7162 24.427C85.8193 24.7639 85.9974 25.073 86.2372 25.3311C86.4617 25.5931 86.7453 25.7979 87.0646 25.9287C87.4145 26.0712 87.7903 26.139 88.1679 26.1279Z" fill="#4C6C7C"/>
<path d="M104.747 16.3213V27.8593H103.644C103.497 27.8711 103.349 27.8448 103.215 27.7827C103.09 27.7067 102.981 27.6079 102.893 27.4916L96.8711 19.7996C96.9018 20.152 96.9171 20.4738 96.9171 20.7802V27.8593H95.0171V16.3213H96.3808L96.5647 16.3673L96.7026 16.4745L96.8711 16.6584L102.908 24.3811C102.893 24.1972 102.893 24.0133 102.878 23.8294C102.862 23.6456 102.862 23.477 102.862 23.3238V16.3213H104.747Z" fill="#4C6C7C"/>
<path d="M115.028 18.0834H111.55V27.8593H109.405V18.0834H105.927V16.3213H115.028V18.0834Z" fill="#4C6C7C"/>
<path d="M124.958 27.8593H123.288C123.208 27.8672 123.128 27.8591 123.051 27.8354C122.975 27.8117 122.904 27.773 122.843 27.7214C122.727 27.6315 122.633 27.5162 122.567 27.3843L121.709 25.0246H116.929L116.071 27.3843C116.021 27.5128 115.936 27.6245 115.825 27.7061C115.763 27.7608 115.69 27.8025 115.611 27.8288C115.532 27.8551 115.449 27.8655 115.366 27.8593H113.696L118.231 16.3213H120.422L124.958 27.8593ZM121.158 23.5077L119.763 19.6617C119.675 19.4688 119.604 19.2689 119.549 19.0641C119.472 18.8342 119.396 18.5737 119.319 18.2979C119.242 18.5737 119.181 18.8342 119.104 19.0641C119.028 19.2939 118.951 19.5084 118.89 19.677L117.496 23.5077H121.158Z" fill="#4C6C7C"/>
<path d="M135.531 16.3213V27.8593H134.427C134.28 27.8726 134.132 27.8461 133.998 27.7827C133.866 27.7115 133.751 27.6121 133.661 27.4916L127.639 19.7996C127.67 20.152 127.685 20.4738 127.685 20.7802V27.8593H125.801V16.3213H127.164L127.333 16.3673L127.486 16.4745L127.639 16.6584L133.692 24.3811L133.646 23.8294C133.63 23.6456 133.63 23.477 133.63 23.3238V16.3213H135.531Z" fill="#4C6C7C"/>
<path d="M145.797 18.0834H142.319V27.8593H140.173V18.0834H136.695V16.3213H145.812L145.797 18.0834Z" fill="#4C6C7C"/>
<path d="M44.3294 6.16211L43.0269 7.02019L42.3987 6.10082L44.7124 4.55322H45.4786V13.7622H44.3294V6.16211Z" fill="#4C6C7C"/>
<path d="M52.1746 9.60986V10.6212H48.0527V9.60986H52.1746Z" fill="#4C6C7C"/>
<path d="M56.0207 13.4101C55.6296 13.1845 55.3026 12.8628 55.0707 12.4754C54.8398 12.0809 54.7231 11.63 54.7336 11.173C54.7317 10.7085 54.8706 10.2545 55.132 9.87053C55.3831 9.47719 55.7459 9.16774 56.1739 8.98181C55.8855 8.77101 55.6538 8.49198 55.4997 8.1697C55.3319 7.85253 55.2376 7.50165 55.2239 7.14307C55.2269 6.69061 55.3484 6.24684 55.5763 5.85596C55.8164 5.47513 56.1416 5.15519 56.5263 4.92127C56.9172 4.69337 57.361 4.57186 57.8134 4.56885H58.3497C58.8023 4.57056 59.2466 4.69016 59.6389 4.91586C60.0312 5.14155 60.3579 5.46556 60.5869 5.85596C60.8168 6.24599 60.9385 6.69032 60.9393 7.14307C60.9384 7.51128 60.8491 7.87387 60.6788 8.20035C60.5224 8.51741 60.2844 8.78713 59.9893 8.98181C60.4168 9.16853 60.7794 9.4778 61.0312 9.87053C61.3016 10.2509 61.4462 10.7063 61.4449 11.173C61.4421 11.6089 61.326 12.0366 61.1078 12.4141C60.902 12.808 60.6019 13.1448 60.2344 13.3948C59.9099 13.6345 59.5193 13.7682 59.1159 13.7778H57.3231C56.8638 13.7744 56.4139 13.6473 56.0207 13.4101ZM58.8707 12.6133C59.0595 12.614 59.2466 12.5763 59.4204 12.5026C59.5942 12.4288 59.7513 12.3205 59.882 12.1843C60.1553 11.9124 60.3096 11.5432 60.311 11.1576C60.3117 10.9688 60.2741 10.7818 60.2003 10.608C60.1266 10.4341 60.0183 10.2771 59.882 10.1463C59.7507 10.0108 59.5936 9.90295 59.4199 9.82925C59.2462 9.75556 59.0594 9.71749 58.8707 9.7173H57.3231C56.9409 9.7212 56.5752 9.87373 56.3035 10.1426C56.0318 10.4114 55.8754 10.7755 55.8674 11.1576C55.8689 11.5432 56.0232 11.9124 56.2965 12.1843C56.429 12.3224 56.5885 12.4318 56.7651 12.5056C56.9418 12.5794 57.1317 12.6161 57.3231 12.6133H58.8707ZM58.3344 8.58341C58.529 8.59338 58.7234 8.56007 58.9036 8.48588C59.0837 8.4117 59.2452 8.29848 59.3764 8.15438C59.5108 8.02293 59.6179 7.86618 59.6915 7.69317C59.7651 7.52015 59.8037 7.33427 59.8051 7.14626C59.8065 6.95825 59.7707 6.77182 59.6998 6.5977C59.6288 6.42359 59.5241 6.26524 59.3917 6.13177H59.361C59.2319 5.99449 59.0747 5.88653 58.9003 5.81516C58.7258 5.74379 58.5381 5.71067 58.3497 5.71806H57.8134C57.6251 5.71067 57.4373 5.74379 57.2629 5.81516C57.0884 5.88653 56.9313 5.99449 56.8021 6.13177C56.6666 6.26304 56.5587 6.42019 56.485 6.59391C56.4114 6.76763 56.3733 6.95437 56.3731 7.14307C56.3745 7.52859 56.5288 7.89781 56.8021 8.1697C56.9305 8.30896 57.0872 8.41925 57.2615 8.49323C57.4359 8.56721 57.6241 8.60318 57.8134 8.59874L58.3344 8.58341Z" fill="#4C6C7C"/>
<path d="M64.6014 13.4098C64.0969 13.1427 63.6775 12.7392 63.3909 12.2453C63.0847 11.6984 62.9312 11.0792 62.9466 10.4526V7.84768C62.9297 7.22088 63.0832 6.60126 63.3909 6.05492C63.6809 5.55294 64.1127 5.1478 64.6321 4.89039C65.1772 4.61313 65.7828 4.4762 66.3942 4.49199C66.986 4.47588 67.5719 4.61312 68.095 4.89039C68.6002 5.16374 69.0193 5.57226 69.3055 6.07024C69.6112 6.6118 69.7648 7.22597 69.7499 7.84768V10.4526C69.765 11.084 69.6117 11.7081 69.3055 12.2606C69.0146 12.751 68.5963 13.1535 68.095 13.4252C67.5667 13.6882 66.9844 13.8246 66.3942 13.8236H66.3023C65.7102 13.8252 65.1266 13.6832 64.6014 13.4098ZM66.3942 12.6744C66.6852 12.6881 66.976 12.6437 67.2496 12.5437C67.5232 12.4437 67.7742 12.2902 67.9878 12.0921C68.2072 11.8823 68.3773 11.6264 68.486 11.3429C68.5946 11.0594 68.639 10.7553 68.616 10.4526V7.84768C68.6369 7.54515 68.5915 7.2417 68.483 6.95852C68.3745 6.67534 68.2055 6.41926 67.9878 6.20814C67.5512 5.8179 66.9791 5.61436 66.3942 5.6412C65.7799 5.60315 65.1751 5.80659 64.7087 6.20814C64.4958 6.42279 64.33 6.67944 64.2219 6.96173C64.1137 7.24402 64.0655 7.54575 64.0805 7.84768V10.4526C64.0655 10.7545 64.1137 11.0562 64.2219 11.3385C64.33 11.6208 64.4958 11.8774 64.7087 12.0921C64.9223 12.2902 65.1732 12.4437 65.4468 12.5437C65.7205 12.6437 66.0113 12.6881 66.3023 12.6744H66.3942Z" fill="#4C6C7C"/>
<path d="M73.0596 13.4096C72.5509 13.1427 72.1264 12.7395 71.8338 12.2451C71.5275 11.6982 71.3741 11.079 71.3894 10.4523V7.84745C71.3725 7.22066 71.5261 6.60103 71.8338 6.05469C72.1238 5.55271 72.5555 5.14758 73.075 4.89016C73.626 4.61405 74.2363 4.47726 74.8524 4.49177C75.4391 4.47761 76.0196 4.61482 76.5379 4.89016C77.0466 5.15873 77.4669 5.56841 77.7484 6.07001C78.0541 6.61157 78.2077 7.22574 78.1928 7.84745V10.4523C78.2079 11.0838 78.0545 11.7079 77.7484 12.2604C77.4619 12.7543 77.0425 13.1578 76.5379 13.4249C76.0144 13.6862 75.4375 13.8226 74.8524 13.8233H74.7605C74.1682 13.8268 73.5841 13.6847 73.0596 13.4096ZM74.8524 12.6741C75.4397 12.6985 76.0127 12.4891 76.446 12.0919C76.6588 11.8772 76.8246 11.6206 76.9328 11.3383C77.041 11.056 77.0891 10.7543 77.0742 10.4523V7.84745C77.0882 7.54562 77.0396 7.24416 76.9315 6.96201C76.8234 6.67986 76.6581 6.42312 76.446 6.20792C76.0078 5.8205 75.4368 5.61738 74.8524 5.64098C74.2388 5.60774 73.6357 5.81059 73.1669 6.20792C72.9475 6.41776 72.7773 6.67364 72.6687 6.95715C72.5601 7.24065 72.5156 7.54472 72.5387 7.84745V10.4523C72.5168 10.7536 72.5603 11.0561 72.6661 11.339C72.7719 11.622 72.9375 11.8788 73.1516 12.0919C73.3679 12.2904 73.6216 12.4441 73.8977 12.5441C74.1739 12.644 74.4671 12.6882 74.7605 12.6741H74.8524Z" fill="#4C6C7C"/>
<defs>
<linearGradient id="paint0_linear_2031_25039" x1="12.4899" y1="33.9403" x2="26.4675" y2="6.3881" gradientUnits="userSpaceOnUse">
<stop stop-color="#EF8A31"/>
<stop offset="0.52" stop-color="#F29F2E"/>
<stop offset="0.98" stop-color="#F5BA27"/>
</linearGradient>
</defs>
</svg>
